<svg xmlns="http://www.w3.org/2000/svg" viewBox="0 0 400 260"><g transform="translate(200 250) scale(1 1)"><g transform="translate(-200 -250)"><path d="M 192.53 71.71 C 195.65 73.46 197.46 75.39 198.72 78.74 C 199.78 82.92 199.57 86.46 197.45 90.24 C 196.46 91.69 195.48 92.82 194.25 94.08 C 193.83 94.08 193.41 94.08 192.97 94.08 C 193.29 96.61 193.29 96.61 193.61 99.19 C 194.56 99.04 194.56 99.04 195.53 98.88 C 198.06 98.52 200.56 98.46 203.11 98.47 C 203.58 98.47 204.05 98.47 204.53 98.46 C 205.50 98.46 206.48 98.47 207.46 98.47 C 208.94 98.47 210.42 98.47 211.91 98.46 C 212.87 98.46 213.82 98.47 214.78 98.47 C 215.22 98.47 215.65 98.46 216.10 98.46 C 218.90 98.47 221.54 98.74 224.28 99.19 C 224.37 98.49 224.37 98.49 224.47 97.78 C 226.48 84.32 226.48 84.32 231.31 80.02 C 237.37 75.90 244.69 77.13 251.49 78.38 C 254.22 78.91 256.95 79.48 259.67 80.05 C 261.79 80.50 263.90 80.93 266.01 81.36 C 267.37 81.64 268.73 81.92 270.10 82.21 C 270.72 82.33 271.34 82.46 271.98 82.59 C 284.79 85.33 284.79 85.33 288.83 90.24 C 292.88 96.53 291.41 103.22 289.98 110.18 C 289.84 110.89 289.69 111.61 289.54 112.35 C 289.24 113.84 288.93 115.32 288.63 116.80 C 288.20 118.91 287.81 121.03 287.42 123.15 C 287.17 124.44 286.92 125.74 286.67 127.03 C 286.56 127.61 286.46 128.20 286.36 128.81 C 285.30 134.03 282.72 137.70 278.56 141.01 C 275.71 142.52 273.53 143.28 270.29 143.28 C 270.08 144.41 270.08 144.41 269.85 145.56 C 269.35 147.62 268.71 148.95 267.37 150.59 C 265.78 152.66 265.62 154.25 265.44 156.86 C 262.93 173.75 249.72 189.59 237.51 200.51 C 236.94 201.03 236.37 201.54 235.79 202.07 C 235.31 202.45 234.85 202.83 234.36 203.21 C 233.03 204.56 233.03 204.56 233.29 206.39 C 233.47 207.06 233.64 207.72 233.82 208.40 C 234.09 209.49 234.09 209.49 234.37 210.60 C 234.57 211.36 234.78 212.12 234.99 212.90 C 235.37 214.39 235.75 215.89 236.13 217.38 C 236.31 218.05 236.49 218.71 236.67 219.40 C 237.05 221.18 237.29 222.63 237.06 224.44 C 236.09 225.07 236.09 225.07 235.10 225.72 C 233.98 226.44 233.98 226.44 233.23 227.63 C 233.08 230.46 233.42 233.16 233.87 235.94 C 234.47 236.13 235.07 236.31 235.69 236.50 C 238.19 237.39 238.94 238.12 240.26 240.41 C 240.84 242.38 241.11 244.12 240.90 246.17 C 239.62 248.08 239.62 248.08 237.70 249.36 C 233.39 250.18 229.08 250.12 224.71 250.12 C 223.37 250.12 222.03 250.13 220.69 250.14 C 210.63 250.19 210.63 250.19 206.79 247.76 C 205.47 245.73 205.23 243.90 204.84 241.53 C 204.24 238.67 203.09 236.06 201.92 233.39 C 201.52 233.58 201.13 233.78 200.72 233.99 C 199.84 234.42 198.96 234.86 198.08 235.30 C 197.65 236.43 197.65 236.43 197.35 237.79 C 197.22 238.30 197.09 238.80 196.96 239.32 C 196.70 240.39 196.44 241.46 196.19 242.52 C 194.87 247.65 194.87 247.65 192.33 249.36 C 188.06 250.29 183.72 250.12 179.37 250.12 C 177.92 250.12 176.46 250.13 175.00 250.14 C 174.06 250.15 173.13 250.15 172.20 250.15 C 171.36 250.15 170.52 250.15 169.65 250.15 C 166.93 249.97 165.08 249.47 163.01 247.69 C 161.93 245.40 162.19 243.39 162.94 241.05 C 164.10 239.16 165.39 237.59 167.41 236.58 C 168.05 234.03 168.05 234.03 168.05 231.47 C 166.60 229.65 166.60 229.65 164.86 228.27 C 164.64 227.64 164.43 227.01 164.22 226.36 C 163.37 226.83 163.37 226.83 162.50 227.31 C 158.60 228.97 153.99 228.94 149.92 227.88 C 145.97 226.14 142.99 222.96 141.12 219.10 C 139.28 213.85 139.61 208.86 141.97 203.83 C 143.30 201.39 144.83 199.33 146.75 197.33 C 147.69 196.21 148.27 195.09 148.88 193.77 C 148.46 193.63 148.04 193.50 147.60 193.37 C 141.12 190.40 136.78 184.98 134.18 178.43 C 133.13 175.20 132.27 172.26 132.27 168.84 C 131.67 168.79 131.08 168.74 130.47 168.68 C 128.43 168.21 128.43 168.21 127.39 167.09 C 125.13 163.38 124.87 158.39 125.24 154.15 C 126.32 151.64 127.28 150.79 129.71 149.67 C 129.70 149.27 129.69 148.87 129.68 148.45 C 129.40 135.76 129.79 125.04 139.02 115.37 C 149.21 105.65 165.31 102.51 178.91 101.11 C 178.96 97.35 178.68 94.79 176.08 91.96 C 175.67 91.55 175.27 91.14 174.86 90.71 C 172.82 88.58 172.56 86.86 172.33 83.98 C 172.43 80.26 173.53 77.33 175.84 74.43 C 181.09 70.23 186.19 68.93 192.53 71.71 Z" fill="#081724"/><path d="M 252.07 83.41 C 252.82 83.56 253.56 83.71 254.34 83.87 C 255.91 84.19 257.49 84.51 259.06 84.83 C 261.46 85.33 263.87 85.82 266.28 86.30 C 267.81 86.62 269.35 86.93 270.88 87.24 C 271.60 87.39 272.31 87.53 273.05 87.68 C 278.10 88.73 282.33 89.86 285.63 94.08 C 287.16 98.22 286.87 101.80 285.98 106.04 C 285.81 106.90 285.81 106.90 285.65 107.77 C 285.41 108.97 285.17 110.18 284.93 111.38 C 284.55 113.20 284.20 115.03 283.84 116.85 C 283.61 118.02 283.38 119.20 283.14 120.37 C 282.98 121.18 282.98 121.18 282.82 122.00 C 280.52 133.24 280.52 133.24 277.32 136.25 C 274.53 138.06 272.32 138.71 269.01 138.17 C 267.46 136.41 267.46 136.41 266.70 135.36 C 264.42 132.71 260.86 131.67 257.51 131.14 C 256.22 131.05 254.93 131.00 253.64 130.98 C 252.98 130.96 252.33 130.95 251.66 130.93 C 249.82 130.98 249.82 130.98 248.61 132.11 C 246.39 133.70 244.11 133.26 241.50 132.85 C 240.11 132.58 238.73 132.27 237.34 131.94 C 236.88 131.84 236.41 131.74 235.93 131.63 C 232.09 130.73 229.27 129.28 226.64 126.23 C 224.23 121.50 224.96 116.85 226.03 111.83 C 226.21 110.92 226.21 110.92 226.40 110.00 C 226.66 108.73 226.92 107.46 227.19 106.19 C 227.60 104.27 227.98 102.34 228.37 100.41 C 228.63 99.17 228.88 97.93 229.14 96.69 C 229.31 95.84 229.31 95.84 229.49 94.96 C 230.42 90.65 231.61 86.68 234.87 83.57 C 240.00 80.28 246.50 82.26 252.07 83.41 Z M 244.73 114.53 C 243.20 119.08 242.35 123.80 242.81 128.59 C 243.79 129.90 244.35 130.43 245.97 130.76 C 246.41 130.75 246.84 130.75 247.29 130.74 C 247.72 130.75 248.16 130.75 248.60 130.76 C 250.28 130.41 250.76 129.98 251.76 128.59 C 254.17 120.92 254.17 120.92 253.04 113.25 C 250.13 111.79 246.74 111.78 244.73 114.53 Z" fill="#FFFEFA"/><path d="M 219.37 120.48 C 219.73 120.63 220.08 120.77 220.45 120.92 C 220.45 122.32 220.45 122.32 219.81 124.11 C 218.76 124.86 218.76 124.86 217.45 125.59 C 212.77 128.30 210.42 132.48 208.75 137.54 C 207.17 144.34 208.35 150.37 211.76 156.37 C 214.59 160.51 218.16 163.03 223.01 164.37 C 227.05 164.78 231.10 164.60 235.15 164.37 C 234.64 166.83 234.64 166.83 233.45 167.71 C 228.54 169.32 222.71 168.67 218.09 166.49 C 211.58 162.77 207.78 157.91 205.11 150.95 C 203.01 151.37 200.90 151.80 198.72 152.23 C 198.54 152.90 198.35 153.57 198.15 154.26 C 196.67 159.44 195.21 164.01 191.69 168.21 C 191.37 168.60 191.06 169.00 190.72 169.41 C 186.00 174.71 178.90 177.50 171.92 177.95 C 165.58 177.73 159.81 175.63 155.05 171.33 C 150.22 166.12 147.60 160.57 147.60 153.39 C 148.07 145.07 150.13 139.25 155.91 133.06 C 162.59 127.55 169.73 125.85 178.27 126.67 C 184.52 127.88 189.78 130.82 193.56 136.02 C 194.89 138.19 196.00 140.22 196.81 142.65 C 199.28 142.69 201.45 142.67 203.84 142.01 C 203.98 141.38 204.12 140.75 204.26 140.11 C 206.19 131.93 209.55 126.02 216.42 120.92 C 217.89 120.28 217.89 120.28 219.37 120.48 Z" fill="#075BD8"/><path d="M 246.01 149.67 C 248.83 150.59 251.64 151.53 254.39 152.63 C 256.71 153.52 258.88 153.89 261.35 154.15 C 259.42 171.36 246.81 185.64 235.04 197.26 C 234.62 197.68 234.19 198.10 233.75 198.53 C 232.59 199.52 232.59 199.52 230.67 200.16 C 229.62 198.26 228.56 196.36 227.48 194.40 C 227.06 194.40 226.63 194.40 226.20 194.40 C 226.34 194.95 226.48 195.50 226.62 196.06 C 227.35 198.91 228.05 201.77 228.76 204.63 C 228.92 205.31 229.09 206.00 229.26 206.71 C 229.80 208.94 230.34 211.18 230.87 213.42 C 231.05 214.14 231.23 214.88 231.41 215.63 C 231.57 216.32 231.73 217.01 231.91 217.72 C 232.05 218.34 232.20 218.96 232.35 219.59 C 232.60 221.27 232.62 222.24 231.95 223.80 C 230.48 224.59 229.16 225.19 227.60 225.76 C 227.16 225.92 226.73 226.09 226.29 226.25 C 222.49 227.66 218.67 228.75 214.70 229.55 C 213.83 229.77 213.83 229.77 212.96 230.00 C 211.23 230.36 210.04 230.55 208.31 230.19 C 206.42 228.50 205.11 226.61 203.83 224.44 C 202.60 224.54 202.60 224.54 201.28 225.08 C 200.37 226.39 200.37 226.39 199.60 227.96 C 197.89 230.67 197.89 230.67 196.03 231.34 C 194.31 231.49 192.70 231.46 190.98 231.35 C 190.36 231.33 189.75 231.31 189.12 231.29 C 172.84 230.51 172.84 230.51 169.33 227.00 C 169.62 221.21 171.12 215.31 173.56 210.06 C 175.26 205.74 175.32 201.47 174.44 196.96 C 176.34 196.33 176.34 196.33 178.27 195.68 C 178.91 197.60 178.91 197.60 178.71 199.48 C 178.81 200.44 178.81 200.44 178.91 201.43 C 180.76 202.98 180.76 202.98 182.75 203.99 C 182.54 205.04 182.32 206.10 182.11 207.19 C 182.53 207.40 182.95 207.61 183.39 207.82 C 183.47 207.34 183.57 206.85 183.67 206.35 C 184.02 204.63 184.02 204.63 184.66 202.71 C 183.94 202.45 183.21 202.19 182.47 201.91 C 180.19 200.80 180.19 200.80 179.51 199.56 C 179.56 197.97 180.01 197.03 180.83 195.68 C 182.55 195.72 183.67 195.97 184.91 197.19 C 185.89 198.41 186.80 199.64 187.70 200.92 C 188.20 201.59 188.20 201.59 188.70 202.29 C 191.41 206.05 193.94 209.91 196.40 213.83 C 197.29 215.39 197.29 215.39 198.08 216.13 C 198.11 217.20 198.11 218.26 198.08 219.33 C 199.99 220.38 201.64 221.19 203.83 221.24 C 205.47 219.86 206.71 218.69 207.67 216.77 C 207.25 216.77 206.82 216.77 206.39 216.77 C 207.62 212.84 209.09 209.12 210.83 205.39 C 212.65 201.41 214.19 197.49 215.35 193.25 C 215.98 191.85 215.98 191.85 217.32 191.01 C 217.72 190.86 218.12 190.72 218.53 190.57 C 221.07 193.89 221.07 193.89 221.13 196.04 C 219.94 198.76 217.96 200.37 215.46 201.88 C 213.92 203.20 213.92 203.20 213.92 204.84 C 213.96 205.96 214.03 207.07 214.14 208.18 C 214.04 210.11 213.41 210.88 212.14 212.30 C 213.14 211.02 213.14 211.02 214.70 209.74 C 216.19 209.72 217.68 209.72 219.17 209.74 C 220.90 208.70 221.07 207.89 221.65 205.95 C 221.94 203.98 221.94 203.98 220.73 202.67 C 220.42 202.26 220.12 201.86 219.81 201.43 C 220.24 199.91 220.59 198.74 221.73 197.60 C 221.79 196.67 221.81 195.73 221.80 194.80 C 221.81 194.30 221.81 193.79 221.81 193.27 C 221.78 191.74 221.78 191.74 221.09 189.93 C 221.39 189.73 221.71 189.53 222.03 189.32 C 233.49 181.34 239.29 165.92 244.18 153.29 C 245.31 150.38 245.31 150.38 246.01 149.67 Z" fill="#26374F"/><path d="M 222.37 104.30 C 223.76 108.26 222.63 112.69 221.09 116.44 C 219.27 117.89 217.59 118.60 215.43 119.44 C 210.58 121.46 206.57 125.70 204.47 130.50 C 203.50 133.46 202.68 136.43 201.92 139.45 C 200.86 139.66 199.81 139.87 198.72 140.09 C 198.47 139.64 198.21 139.19 197.95 138.73 C 193.72 131.67 188.81 127.23 181.03 124.59 C 172.71 122.78 164.80 124.53 157.55 128.77 C 151.08 133.08 148.41 139.12 145.39 146.06 C 144.40 147.76 144.40 147.76 143.21 148.41 C 142.79 148.48 142.37 148.56 141.93 148.64 C 141.48 148.71 141.04 148.80 140.58 148.89 C 139.07 149.06 137.61 149.13 136.10 149.03 C 134.44 146.55 134.60 143.92 134.62 141.05 C 134.62 140.54 134.63 140.02 134.63 139.49 C 134.80 131.17 137.04 124.13 143.13 118.24 C 160.71 103.84 200.69 99.44 222.37 104.30 Z" fill="#00D66B"/><path d="M 201.28 154.15 C 202.47 154.22 202.47 154.22 203.83 154.79 C 204.91 156.23 204.91 156.23 205.95 158.06 C 209.94 164.58 214.25 167.57 221.33 170.32 C 224.66 170.95 227.93 170.86 231.31 170.76 C 231.52 171.18 231.73 171.60 231.95 172.04 C 231.12 173.53 230.26 174.93 229.32 176.35 C 229.06 176.74 228.81 177.13 228.56 177.53 C 228.04 178.31 227.52 179.09 226.98 179.86 C 226.26 180.90 225.59 181.96 224.93 183.03 C 220.74 187.89 211.15 188.13 205.23 189.05 C 204.38 189.19 203.52 189.32 202.66 189.47 C 200.29 189.84 197.91 190.21 195.53 190.57 C 194.98 190.65 194.44 190.74 193.88 190.83 C 188.57 191.63 183.23 192.07 177.88 192.41 C 177.28 192.46 176.68 192.50 176.06 192.55 C 172.32 192.75 170.41 192.38 167.41 189.93 C 164.23 188.87 160.55 188.70 157.43 189.97 C 155.08 190.90 153.13 190.68 150.80 189.93 C 145.11 187.01 141.31 182.73 139.07 176.76 C 137.05 170.15 137.05 170.15 138.01 167.57 C 139.36 167.23 140.71 166.90 142.05 166.57 C 142.79 166.38 143.55 166.20 144.32 166.01 C 146.32 165.65 146.32 165.65 148.24 166.29 C 149.06 167.45 149.06 167.45 149.91 168.92 C 153.68 174.75 158.95 177.40 165.40 179.45 C 174.66 181.23 182.61 178.57 190.22 173.44 C 195.28 168.65 198.27 162.48 200.27 155.88 C 200.64 154.79 200.64 154.79 201.28 154.15 Z" fill="#00D66B"/><path d="M 184.28 135.72 C 188.45 138.66 190.75 142.79 191.69 147.76 C 192.36 153.78 191.48 158.62 187.86 163.55 C 184.03 168.08 180.04 171.02 173.99 171.55 C 167.90 171.71 163.37 170.34 158.83 166.18 C 155.20 161.94 153.73 156.78 153.82 151.29 C 154.49 145.06 157.52 140.57 162.14 136.55 C 168.73 131.47 177.24 131.76 184.28 135.72 Z" fill="#FFFEFA"/><path d="M 221.04 126.80 C 222.74 127.45 223.32 128.30 224.40 129.74 C 228.34 134.40 233.36 135.29 239.16 136.44 C 240.89 136.89 240.89 136.89 242.17 138.17 C 243.89 144.89 242.13 151.35 238.98 157.34 C 236.49 160.68 233.36 162.06 229.28 162.66 C 224.42 163.02 220.60 161.32 216.61 158.62 C 214.98 157.07 213.86 155.48 212.78 153.51 C 212.57 153.14 212.35 152.77 212.13 152.38 C 209.74 147.35 210.02 140.50 211.82 135.33 C 213.28 132.19 217.07 126.39 221.04 126.80 Z" fill="#FFFEFA"/><path d="M 184.66 132.42 C 189.35 135.54 192.95 139.82 194.49 145.28 C 195.75 152.47 194.45 158.96 190.41 165.01 C 187.07 169.23 182.44 173.00 177.00 173.96 C 170.59 174.42 165.19 174.59 159.74 170.76 C 159.37 170.52 159.00 170.28 158.62 170.04 C 154.52 167.09 152.37 161.92 151.08 157.18 C 149.93 150.04 151.93 144.12 155.98 138.37 C 163.32 129.39 174.47 127.93 184.66 132.42 Z M 157.82 140.73 C 154.51 145.92 153.17 150.94 154.28 157.04 C 155.69 162.40 158.45 166.49 163.13 169.51 C 167.51 171.99 172.61 172.15 177.46 170.98 C 184.00 168.63 188.06 164.16 191.05 157.98 C 192.96 152.18 191.75 146.08 189.14 140.73 C 186.64 136.60 182.78 134.60 178.27 133.06 C 169.68 131.83 163.51 134.25 157.82 140.73 Z" fill="#081724"/><path d="M 165.49 193.13 C 168.22 194.64 170.08 196.61 171.24 199.52 C 171.79 203.23 171.46 206.58 169.58 209.86 C 167.25 212.91 164.49 214.92 160.66 215.53 C 157.83 215.67 155.82 215.03 153.35 213.58 C 150.44 210.51 149.88 207.90 149.94 203.80 C 150.37 200.32 151.95 197.68 154.46 195.25 C 157.82 192.79 161.43 192.26 165.49 193.13 Z" fill="#00D66B"/><path d="M 200.64 193.77 C 202.79 194.69 204.21 195.84 205.75 197.60 C 205.75 198.02 205.75 198.44 205.75 198.88 C 206.33 198.97 206.33 198.97 206.91 199.08 C 208.31 199.52 208.31 199.52 210.22 201.43 C 209.59 203.33 208.96 205.23 208.31 207.19 C 207.89 207.19 207.46 207.19 207.03 207.19 C 207.09 207.61 207.16 208.03 207.23 208.46 C 206.97 210.91 205.96 212.30 204.59 214.30 C 203.73 215.55 203.73 215.55 203.20 217.41 C 202.56 217.41 201.93 217.41 201.28 217.41 C 200.13 216.08 200.13 216.08 198.96 214.34 C 198.57 213.76 198.18 213.19 197.78 212.60 C 196.80 211.02 196.80 211.02 196.17 209.10 C 195.67 208.62 195.16 208.12 194.64 207.63 C 192.89 205.82 192.14 204.33 191.05 202.07 C 189.81 200.13 188.52 198.22 187.22 196.32 C 189.03 194.51 190.45 194.74 192.97 194.56 C 193.78 194.50 194.58 194.44 195.41 194.37 C 197.44 194.40 197.44 194.40 198.72 195.68 C 199.35 195.05 199.99 194.42 200.64 193.77 Z M 205.11 198.88 C 205.75 200.16 205.75 200.16 205.75 200.16 Z M 203.83 200.80 C 203.62 201.22 203.41 201.64 203.20 202.07 C 203.62 202.07 204.04 202.07 204.47 202.07 C 204.26 201.65 204.05 201.23 203.83 200.80 Z" fill="#26374F"/><path d="M 212.78 168.84 C 213.07 173.63 213.20 177.66 210.22 181.62 C 207.31 184.33 205.41 185.06 201.52 184.99 C 199.07 184.72 197.34 183.94 195.53 182.26 C 193.10 179.03 192.51 176.00 192.97 172.04 C 193.94 170.29 194.49 169.61 196.40 169.00 C 196.99 168.92 197.57 168.84 198.18 168.77 C 198.82 168.68 199.46 168.60 200.13 168.51 C 200.79 168.44 201.46 168.36 202.16 168.28 C 203.16 168.15 203.16 168.15 204.17 168.01 C 207.51 167.60 209.67 167.38 212.78 168.84 Z" fill="#8C1831"/><path d="M 260.32 134.92 C 263.14 136.54 264.86 138.17 265.82 141.37 C 265.76 144.74 265.05 146.68 262.62 149.03 C 260.32 150.44 258.33 150.49 255.67 150.06 C 252.48 149.14 249.43 147.10 247.29 144.56 C 246.52 141.44 246.28 140.20 247.73 137.29 C 250.97 133.61 255.80 133.20 260.32 134.92 Z" fill="#00D66B"/><path d="M 189.14 75.55 C 191.23 76.65 192.59 77.51 193.89 79.50 C 194.57 82.92 194.28 85.92 192.49 88.93 C 189.95 91.25 187.53 91.88 184.07 91.82 C 181.60 91.27 179.92 89.53 178.27 87.69 C 177.25 85.64 177.40 83.52 177.63 81.30 C 178.78 78.65 180.40 77.19 182.75 75.55 C 185.19 74.73 186.63 74.99 189.14 75.55 Z" fill="#075BD8"/><path d="M 249.12 100.27 C 249.60 100.36 250.08 100.46 250.58 100.56 C 252.86 101.09 254.10 101.48 255.60 103.34 C 256.38 105.32 256.41 106.15 255.59 108.14 C 254.31 109.66 254.31 109.66 252.40 110.69 C 248.58 110.69 244.96 109.70 241.26 108.82 C 240.80 108.71 240.35 108.60 239.88 108.49 C 236.58 107.65 236.58 107.65 235.14 106.22 C 234.87 103.80 234.82 102.31 236.06 100.19 C 240.01 97.78 244.87 99.37 249.12 100.27 Z" fill="#24B5ED"/><path d="M 265.22 92.08 C 267.58 92.98 268.32 93.86 269.66 95.99 C 269.67 98.06 269.67 98.06 269.25 100.31 C 269.04 101.49 269.04 101.49 268.82 102.69 C 268.68 103.43 268.53 104.18 268.38 104.94 C 268.29 105.53 268.20 106.13 268.11 106.73 C 267.73 109.05 267.39 110.42 265.66 112.05 C 263.48 112.74 262.24 112.63 260.07 111.97 C 258.87 111.29 258.87 111.29 258.15 110.05 C 257.76 106.64 258.32 103.40 258.91 100.03 C 259.05 99.23 259.19 98.41 259.33 97.58 C 260.36 94.48 261.78 92.22 265.22 92.08 Z" fill="#00D66B"/><path d="M 261.11 114.29 C 264.40 114.35 267.46 114.91 270.65 115.69 C 271.32 115.85 271.32 115.85 272.01 116.01 C 275.25 116.84 275.25 116.84 276.69 119.00 C 276.88 120.95 277.01 122.27 276.00 123.99 C 272.32 126.25 268.06 125.20 264.10 124.35 C 263.30 124.21 263.30 124.21 262.47 124.06 C 259.87 123.51 258.46 123.13 256.47 121.27 C 255.60 119.64 255.60 119.64 255.99 117.60 C 257.34 114.86 258.14 114.33 261.11 114.29 Z" fill="#F4C637"/><path d="M 251.76 112.61 C 253.04 113.25 253.04 113.25 253.68 114.53 C 254.20 119.17 253.65 125.95 250.89 129.79 C 249.60 130.66 248.83 130.76 247.29 130.75 C 246.85 130.75 246.42 130.75 245.97 130.76 C 244.35 130.43 243.79 129.90 242.81 128.59 C 242.35 123.85 242.72 117.29 245.60 113.34 C 247.50 112.02 249.54 112.28 251.76 112.61 Z" fill="#F32643"/><path d="M 228.72 137.61 C 230.95 138.25 231.80 138.93 233.23 140.73 C 234.41 144.26 234.49 148.25 232.99 151.67 C 231.63 153.24 230.93 153.47 228.88 153.79 C 226.84 153.51 226.84 153.51 225.04 151.75 C 222.93 148.62 222.74 146.43 223.00 142.65 C 224.20 139.63 225.14 137.46 228.72 137.61 Z" fill="#081724"/><path d="M 143.77 152.23 C 145.01 153.47 144.66 155.72 144.76 157.38 C 144.85 158.62 144.85 158.62 144.93 159.88 C 144.97 160.52 145.01 161.16 145.04 161.81 C 135.16 164.18 135.16 164.18 132.26 164.37 C 130.57 162.68 130.70 161.62 130.51 159.26 C 130.44 158.57 130.38 157.88 130.31 157.18 C 130.35 155.42 130.35 155.42 131.62 154.15 C 133.06 153.75 134.52 153.41 135.98 153.11 C 136.76 152.94 137.54 152.77 138.35 152.61 C 140.23 152.29 141.87 152.10 143.77 152.23 Z" fill="#075BD8"/><path d="M 228.76 230.19 C 228.76 231.88 228.76 233.56 228.76 235.30 C 226.17 236.17 223.59 237.02 221.01 237.86 C 219.91 238.22 219.91 238.22 218.79 238.60 C 217.73 238.94 217.73 238.94 216.65 239.30 C 216.00 239.51 215.35 239.72 214.68 239.95 C 212.70 240.43 210.98 240.50 208.95 240.41 C 208.62 239.60 208.31 238.79 207.99 237.98 C 207.81 237.53 207.63 237.07 207.45 236.61 C 207.03 235.30 207.03 235.30 207.03 233.39 C 207.83 233.27 208.63 233.16 209.46 233.03 C 216.99 231.97 216.99 231.97 224.28 229.84 C 225.92 229.47 227.14 229.77 228.76 230.19 Z" fill="#26374F"/><path d="M 145.04 207.82 C 145.47 207.82 145.89 207.82 146.32 207.82 C 146.46 208.20 146.59 208.57 146.72 208.95 C 148.52 213.51 150.78 216.23 155.27 218.29 C 159.70 219.21 162.70 218.48 166.77 216.77 C 166.77 218.69 166.77 218.69 165.77 219.81 C 162.17 222.89 159.65 224.80 154.71 224.64 C 151.33 224.15 148.57 222.55 146.36 219.97 C 144.39 216.91 144.33 213.29 144.40 209.74 C 144.62 209.11 144.83 208.48 145.04 207.82 Z" fill="#26374F"/><path d="M 183.39 146.48 C 185.19 147.52 186.59 148.65 187.86 150.31 C 188.46 152.79 188.46 152.79 188.50 154.79 C 187.44 155.00 186.39 155.21 185.30 155.42 C 184.87 154.79 184.43 154.16 183.99 153.51 C 182.54 151.78 182.19 151.61 179.83 151.11 C 177.52 151.39 177.52 151.39 176.16 153.26 C 175.17 155.25 174.41 157.14 173.80 159.26 C 170.68 158.70 170.68 158.70 169.97 157.98 C 169.86 154.38 170.55 151.49 172.84 148.68 C 175.86 145.79 179.53 145.13 183.39 146.48 Z" fill="#081724"/><path d="M 212.78 168.84 C 213.07 173.63 213.20 177.66 210.22 181.62 C 207.31 184.33 205.41 185.06 201.52 184.99 C 199.07 184.72 197.34 183.94 195.53 182.26 C 193.10 179.03 192.51 176.00 192.97 172.04 C 193.94 170.29 194.49 169.61 196.40 169.00 C 196.99 168.92 197.57 168.84 198.18 168.77 C 198.82 168.68 199.46 168.60 200.13 168.51 C 200.79 168.44 201.46 168.36 202.16 168.28 C 203.16 168.15 203.16 168.15 204.17 168.01 C 207.51 167.60 209.67 167.38 212.78 168.84 Z M 208.95 169.48 C 208.31 169.80 208.31 169.80 207.67 170.12 C 206.81 170.21 205.94 170.25 205.07 170.28 C 204.56 170.30 204.05 170.32 203.53 170.35 C 202.45 170.38 201.38 170.42 200.31 170.45 C 199.80 170.47 199.28 170.50 198.76 170.52 C 198.29 170.54 197.83 170.55 197.35 170.57 C 196.01 170.67 196.01 170.67 194.89 172.04 C 194.51 175.26 195.28 177.52 196.80 180.35 C 198.70 182.46 199.69 182.86 202.52 183.26 C 205.55 183.10 206.93 181.92 208.95 179.71 C 209.48 178.13 209.48 178.13 209.59 176.51 C 209.92 175.72 209.92 175.72 210.26 174.91 C 210.91 173.20 210.97 171.93 210.86 170.12 C 210.23 169.91 209.60 169.70 208.95 169.48 Z" fill="#081724"/><path d="M 201.96 202.67 C 202.88 202.69 202.88 202.69 203.84 202.71 C 204.27 203.49 204.69 204.28 205.11 205.07 C 205.35 205.50 205.59 205.94 205.83 206.39 C 206.76 208.77 206.65 210.38 205.69 212.73 C 205.25 213.56 205.25 213.56 204.79 214.42 C 204.49 214.98 204.20 215.54 203.89 216.12 C 203.55 216.76 203.55 216.76 203.20 217.41 C 202.56 217.41 201.93 217.41 201.28 217.41 C 200.09 216.15 200.09 216.15 198.88 214.46 C 198.47 213.91 198.07 213.36 197.66 212.79 C 196.60 210.58 196.80 209.52 197.45 207.18 C 199.46 202.72 199.46 202.72 201.96 202.67 Z" fill="#075BD8"/><path d="M 173.80 232.75 C 180.05 233.08 186.15 233.68 192.33 234.66 C 193.05 237.03 192.84 238.18 191.69 240.41 C 189.84 241.34 188.82 240.73 186.84 240.18 C 186.13 239.99 185.42 239.79 184.69 239.58 C 183.94 239.37 183.19 239.16 182.43 238.94 C 181.68 238.73 180.94 238.52 180.16 238.31 C 174.61 236.75 174.61 236.75 173.16 235.30 C 173.40 233.95 173.40 233.95 173.80 232.75 Z" fill="#26374F"/><path d="M 254.96 90.24 C 256.52 91.16 256.52 91.16 257.51 92.80 C 257.94 95.82 257.95 97.89 256.23 100.47 C 255.21 100.32 254.18 100.16 253.16 99.99 C 252.59 99.90 252.02 99.81 251.43 99.72 C 249.48 99.07 248.90 98.42 247.93 96.63 C 248.00 94.45 248.18 92.83 249.28 90.92 C 251.24 89.82 252.76 89.98 254.96 90.24 Z" fill="#24B5ED"/><path d="M 276.68 105.58 C 277.92 106.30 277.92 106.30 278.60 107.50 C 278.92 109.70 278.92 109.70 278.60 111.97 C 277.40 113.57 277.40 113.57 275.40 114.53 C 273.23 114.57 271.15 114.35 269.01 113.89 C 268.38 113.25 268.38 113.25 268.34 112.02 C 268.54 109.40 268.68 107.91 270.37 105.82 C 272.79 104.66 274.12 104.87 276.68 105.58 Z" fill="#00D66B"/><path d="M 236.76 110.52 C 237.39 110.53 238.02 110.53 238.66 110.54 C 239.29 110.53 239.91 110.53 240.56 110.52 C 242.18 110.70 242.18 110.70 243.45 111.97 C 243.38 116.43 243.38 116.43 241.42 118.68 C 239.24 119.84 238.20 120.14 235.79 119.64 C 233.87 117.96 233.87 117.96 232.59 115.81 C 233.07 113.05 233.73 110.84 236.76 110.52 Z" fill="#F32643"/><path d="M 205.11 175.87 C 206.95 177.19 206.95 177.19 208.31 178.43 C 207.43 180.45 207.04 180.98 205.11 182.26 C 202.15 182.69 199.57 182.79 197.00 181.18 C 196.17 179.71 196.17 179.71 196.33 177.95 C 196.49 177.48 196.65 177.00 196.80 176.51 C 199.85 175.48 202.00 174.93 205.11 175.87 Z" fill="#F32643"/><path d="M 255.60 123.47 C 258.30 123.75 260.71 124.36 263.02 125.79 C 264.38 128.13 263.79 129.81 263.26 132.42 C 260.10 131.79 256.94 131.15 253.68 130.50 C 254.88 124.19 254.88 124.19 255.60 123.47 Z" fill="#F4C637"/><path d="M 197.44 194.40 C 197.44 196.95 196.50 197.70 194.89 199.64 C 194.41 200.21 193.94 200.79 193.45 201.38 C 193.08 201.82 192.71 202.26 192.33 202.71 C 190.23 200.72 188.60 198.87 187.22 196.32 C 189.67 193.87 194.13 194.32 197.44 194.40 Z" fill="#FFFEFA"/><path d="M 217.49 201.83 C 219.81 202.08 219.81 202.08 221.13 203.47 C 221.72 205.27 221.72 205.27 221.25 207.02 C 220.45 208.47 220.45 208.47 219.81 209.11 C 217.86 209.27 216.48 209.38 214.74 208.42 C 213.65 206.45 214.23 204.84 214.69 202.72 C 215.33 202.08 215.33 202.08 217.49 201.83 Z" fill="#F4C637"/><path d="M 213.42 192.49 C 212.58 194.60 211.73 196.71 210.86 198.88 C 208.47 198.88 208.02 198.28 206.27 196.72 C 205.82 196.32 205.36 195.92 204.88 195.51 C 203.83 194.40 203.83 194.40 203.83 193.13 C 204.95 192.90 206.07 192.67 207.19 192.45 C 208.12 192.26 208.12 192.26 209.07 192.07 C 210.86 191.85 210.86 191.85 213.42 192.49 Z" fill="#FFFEFA"/><path d="M 200.64 193.77 C 202.46 194.58 203.95 195.31 205.11 196.96 C 204.96 199.10 204.72 199.91 203.20 201.43 C 201.32 201.68 201.32 201.68 199.36 201.43 C 198.08 200.35 198.08 200.35 197.44 198.88 C 197.99 196.64 198.91 195.26 200.64 193.77 Z" fill="#075BD8"/><path d="M 195.53 200.16 C 197.44 200.80 197.44 200.80 198.01 201.83 C 198.13 204.16 197.17 205.73 196.17 207.82 C 194.93 207.38 194.93 207.38 193.61 206.55 C 192.97 205.07 192.97 205.07 192.97 203.35 C 194.21 201.56 194.21 201.56 195.53 200.16 Z" fill="#FFFEFA"/><path d="M 214.06 202.71 C 214.70 203.99 214.70 203.99 214.66 205.59 C 214.52 207.30 214.52 207.30 215.98 208.46 C 218.63 208.65 218.63 208.65 221.09 207.82 C 220.88 208.46 220.67 209.09 220.45 209.74 C 216.14 210.38 216.14 210.38 214.70 210.38 C 214.06 211.33 214.06 211.33 213.42 212.30 C 213.00 212.30 212.58 212.30 212.14 212.30 C 212.35 211.95 212.56 211.59 212.78 211.22 C 213.53 209.49 213.53 208.30 213.46 206.43 C 213.43 205.40 213.41 204.37 213.42 203.35 C 213.63 203.14 213.84 202.93 214.06 202.71 Z M 221.09 203.99 C 221.51 203.99 221.93 203.99 222.37 203.99 C 222.15 204.83 221.94 205.68 221.73 206.55 C 221.52 205.70 221.31 204.86 221.09 203.99 Z" fill="#081724"/><path d="M 206.39 199.52 C 207.63 200.03 207.63 200.03 208.95 200.80 C 209.59 202.71 209.59 202.71 208.67 204.75 C 208.17 205.64 208.17 205.64 207.67 206.55 C 206.11 205.33 205.75 204.62 205.23 202.67 C 205.17 201.74 205.17 201.74 205.11 200.80 C 205.53 200.37 205.96 199.95 206.39 199.52 Z" fill="#FFFEFA"/><path d="M 184.66 96.00 C 185.74 96.18 186.80 96.39 187.86 96.63 C 188.07 97.48 188.28 98.32 188.50 99.19 C 186.58 100.47 186.58 100.47 185.18 100.23 C 184.80 100.10 184.42 99.96 184.02 99.83 C 184.00 98.76 184.00 97.70 184.02 96.63 C 184.24 96.42 184.45 96.21 184.66 96.00 Z" fill="#075BD8"/><path d="M 197.44 195.68 C 197.87 196.10 198.29 196.53 198.72 196.96 C 198.30 197.80 197.88 198.65 197.44 199.52 C 196.81 199.31 196.18 199.10 195.53 198.88 C 196.73 196.40 196.73 196.40 197.44 195.68 Z M 193.61 200.16 C 194.05 201.27 194.05 201.27 194.25 202.71 C 193.33 204.15 193.33 204.15 192.33 205.27 C 192.89 200.87 192.89 200.87 193.61 200.16 Z" fill="#26374F"/><path d="M 187.22 211.02 C 188.50 211.66 188.50 211.66 188.50 211.66 Z M 189.14 212.30 C 191.65 213.13 193.12 214.16 194.89 216.13 C 192.17 215.83 190.93 214.23 189.14 212.30 Z M 195.53 216.77 C 196.80 217.41 196.80 217.41 196.80 217.41 Z" fill="#081724"/><path d="M 200.00 202.71 C 201.60 202.91 201.60 202.91 203.20 203.35 C 203.41 203.77 203.62 204.19 203.83 204.63 C 203.41 204.63 202.99 204.63 202.56 204.63 C 202.35 205.26 202.13 205.89 201.92 206.55 C 201.71 205.91 201.50 205.28 201.28 204.63 C 200.65 204.95 200.65 204.95 200.00 205.27 C 199.79 204.64 199.58 204.00 199.36 203.35 C 199.57 203.14 199.78 202.93 200.00 202.71 Z M 198.72 205.27 C 199.14 205.27 199.57 205.27 200.00 205.27 C 200.00 205.69 200.00 206.11 200.00 206.55 C 199.58 206.55 199.16 206.55 198.72 206.55 C 198.72 206.12 198.72 205.70 198.72 205.27 Z" fill="#24B5ED"/></g></g></svg>
